<?xml version="1.0" encoding="UTF-8"?>
<svg width="61px" height="10px" viewBox="0 0 61 10" version="1.1" xmlns="http://www.w3.org/2000/svg" xmlns:xlink="http://www.w3.org/1999/xlink">
    <g id="Page-1" stroke="none" stroke-width="1" fill="none" fill-rule="evenodd">
        <g id="complete-line" transform="translate(0.000000, -1.000000)" fill-rule="nonzero">
            <g id="thick-line" transform="translate(30.615385, 5.384615) rotate(90.000000) translate(-30.615385, -5.384615) translate(25.615385, -24.615385)">
                <polygon id="Path" fill="#666666" points="4.46141538 59.9999999 4.46153846 29.9999999 6.76923077 30.0000033 6.76910769 59.9999999"></polygon>
                <path d="M5.3846156,0.0619223739 C6.02186935,0.0619223739 6.5384616,0.578537603 6.5384616,1.21576832 L6.5384616,1.29699911 C6.5384616,1.93430672 6.02186935,2.45084505 5.3846156,2.45084505 C4.74736184,2.45084505 4.2307696,1.93430672 4.2307696,1.29699911 L4.2307696,1.21576832 C4.2307696,0.578537603 4.74736184,0.0619223739 5.3846156,0.0619223739 Z M5.3846156,8.26707505 C6.02186935,8.26707505 6.5384616,8.78369038 6.5384616,9.4209211 L6.5384616,9.50215178 C6.5384616,10.1393825 6.02186935,10.6559978 5.3846156,10.6559978 C4.74736184,10.6559978 4.2307696,10.1393825 4.2307696,9.50215178 L4.2307696,9.4209211 C4.2307696,8.78369038 4.74736184,8.26707505 5.3846156,8.26707505 Z M5.3846156,16.4723047 C6.02186935,16.4723047 6.5384616,16.9884585 6.5384616,17.6261507 L6.5384616,17.70692 C6.5384616,18.3446122 6.02186935,18.8607659 5.3846156,18.8607659 C4.74736184,18.8607659 4.2307696,18.3446122 4.2307696,17.70692 L4.2307696,17.6261507 C4.2307696,16.9884585 4.74736184,16.4723047 5.3846156,16.4723047 Z M5.3846156,24.6776882 C6.02186166,24.6776882 6.5384616,25.1938419 6.5384616,25.8315342 L6.5384616,25.9123034 C6.5384616,26.5499957 6.02186166,27.0661494 5.3846156,27.0661494 C4.74736184,27.0661494 4.2307696,26.5499957 4.2307696,25.9123034 L4.2307696,25.8315342 C4.2307696,25.1938419 4.74736184,24.6776882 5.3846156,24.6776882 Z M5.3846156,32.8823025 C6.02186166,32.8823025 6.5384616,33.3992255 6.5384616,34.0361484 L6.5384616,34.0769177 C6.5384616,34.7138406 6.02186166,35.2307637 5.3846156,35.2307637 C4.74736184,35.2307637 4.2307696,34.7138406 4.2307696,34.0769177 L4.2307696,34.0361484 C4.2307696,33.3992255 4.74736184,32.8823025 5.3846156,32.8823025 Z" id="Shape" fill="#CCCCCC"></path>
                <circle id="Oval" fill="#136BF5" cx="5.23076962" cy="34.0000004" r="4.61538462"></circle>
            </g>
        </g>
    </g>
</svg>
